<svg xmlns="http://www.w3.org/2000/svg" viewBox="0 0 184.07 139"><g id="Layer_2" data-name="Layer 2"><g id="Layer_1-2" data-name="Layer 1"><path d="M36.86,56.15v10H0V8.23H6.35V65c4.16.07,10.87.21,12.84.21l.71,0A13.74,13.74,0,0,0,21.51,65l.39,0C25.75,64.4,32.78,62.52,36.86,56.15Z"/><path d="M86.74,47.2C84,53.26,79.7,59.27,74,63l-.52.33a23.08,23.08,0,0,1-24.76,0c-5.25-3.53-8.29-9.43-8.29-16.43,0-11.87,10.49-22.24,21.4-23.3a25.06,25.06,0,0,1,4.71,0h0A16.48,16.48,0,0,1,72,25.17l.36.18.45.24a13,13,0,0,1,1.43.92l0,0a10.91,10.91,0,0,1,2.2,2.27l0,.06a13.93,13.93,0,0,1,2.53,7.37.71.71,0,0,0,0,.14v0c0,.78-.07,4-4.79,4H45.68a28.35,28.35,0,0,0-.2,3.39c0,10.27,8.94,18.29,20.21,18.29C75.42,62.12,81.5,56.4,86,47.2Zm-41-7.33h23.7a2.45,2.45,0,0,0,2.46-2.44v0a14.52,14.52,0,0,0-1.83-7.49l0-.06a9.11,9.11,0,0,0-3.66-3.37l-.22-.11-.66-.27a11.71,11.71,0,0,0-4.16-.72C54.75,25.39,49.42,28.56,47,35a.59.59,0,0,0-.05.13q-.3.8-.54,1.65h0a11.94,11.94,0,0,0-.56,2.47h0C45.81,39.44,45.78,39.65,45.75,39.87Z"/><path d="M131.54,47.2c-2.77,6.06-7,12.07-12.7,15.84l-.52.33a23.08,23.08,0,0,1-24.76,0c-5.25-3.53-8.29-9.43-8.29-16.43,0-11.87,10.49-22.24,21.4-23.3a25.06,25.06,0,0,1,4.71,0h0a16.48,16.48,0,0,1,5.44,1.51l.36.18.45.24a14.07,14.07,0,0,1,1.43.92l0,0a10.91,10.91,0,0,1,2.2,2.27l0,.06a13.93,13.93,0,0,1,2.53,7.37.71.71,0,0,0,0,.14v0c0,.78-.07,4-4.79,4H90.48a28.35,28.35,0,0,0-.2,3.39c0,10.27,8.93,18.29,20.21,18.29,9.73,0,15.81-5.72,20.35-14.92Zm-41-7.33h23.7a2.45,2.45,0,0,0,2.46-2.44v0a14.52,14.52,0,0,0-1.83-7.49l0-.06a9.11,9.11,0,0,0-3.66-3.37l-.23-.11c-.22-.1-.43-.19-.65-.27a11.71,11.71,0,0,0-4.16-.72c-6.59,0-11.92,3.17-14.35,9.58a.59.59,0,0,0-.05.13,16.77,16.77,0,0,0-.54,1.65h0a11.31,11.31,0,0,0-.56,2.47h0C90.61,39.44,90.58,39.65,90.55,39.87Z"/><path d="M138.39,28.07v.83c0,3.6-.09,37.44-.09,37.44H132s.08-29.59.08-38.27V23.55c0-12.94-3.34-18.71-9.09-18.71A45.16,45.16,0,0,0,114.18,6V0H115c9.09,0,20.29,10.69,22.88,23.55C138.17,24.82,138.39,28.07,138.39,28.07Z"/><path d="M184.07,63c-2.14,1.92-5,3.86-7,3.86-3.18,0-4.77-2.18-4.77-5.94,0-2,.17-4.59.34-6.34-1.76,3.67-9.44,12.36-16.37,12.36-6.76,0-10.86-4.26-10.86-9.36,0-5.51,5.27-10.92,20.14-16.83l.74-.29,1.15-.45.37-.15a8.26,8.26,0,0,0,5-7.32,2.44,2.44,0,0,0,0-.27v-.2a3.87,3.87,0,0,0,0-.48.21.21,0,0,0,0-.08c0-.18,0-.35-.07-.52a.53.53,0,0,0,0-.12h0a4.64,4.64,0,0,0-.11-.51c0-.15-.08-.31-.13-.46A7.58,7.58,0,0,0,170.85,27l-.17-.21-.36-.39,0,0,0,0a6,6,0,0,0-2.36-1.56,10.12,10.12,0,0,0-3.64-.57,11,11,0,0,0-1.67.12h-.06a6.79,6.79,0,0,0-.94.2,7.88,7.88,0,0,0-2.92,1.42c-2.84,2.17-3.93,5.67-5.19,7.52l-4.17-4.35A39.84,39.84,0,0,1,161.07,24a21.3,21.3,0,0,1,8.94-.24h0c5.08,1,8.85,3.88,9.17,7.33a.13.13,0,0,1,0,.06.24.24,0,0,1,0,.08c.58,4.78-5.88,7.15-5.88,7.15l-6.84,2.92c-12.28,5.18-15.21,7.68-15.21,13.86,0,4.51,4,8.1,9.11,8.1,5.75,0,11.6-7.68,12.35-10.44a4.27,4.27,0,0,1,3.74-2.64c2.85-.17,2.66,2.85,2.66,2.85-.09,1.63-.14,3-.14,3.88,0,4.76.6,7.1,2.35,7.1a3.7,3.7,0,0,0,2.3-1.48Z"/><path d="M40.54,138.13h-8c-1.71-2.1-3.95-5.94-6.64-12.25-5.64-13-8.17-15.27-14.74-15.69-1.61,0-3.21,0-4.82,0v28H0V80.24H14.3c13.53,0,22.05,5.11,22.05,14.45,0,8-6.63,13.77-16.63,15.18,4.75,1,7.52,4.37,12,13.33C36,132.34,38.23,136.38,40.54,138.13ZM13,81H6.35v28.4H13c10.36,0,16.2-5.73,16.2-14.77S23.74,81,13,81Z"/><path d="M90.77,116.66a23.38,23.38,0,0,1-10.29,18.71A20.5,20.5,0,0,1,68.89,139a21.29,21.29,0,0,1-12.2-3.59c-5.23-3.57-8.52-9.62-8.52-17.28,0-12,9.19-22.55,22-22.55C82,95.54,90.77,103.8,90.77,116.66ZM84,118c0-10.43-5.59-21.62-14.78-21.62-9.77,0-14.12,8.1-14.12,20.28,0,7.2,2.71,14.81,7.66,18.71a11.9,11.9,0,0,0,7.55,2.68,11.73,11.73,0,0,0,7.75-2.68C81.94,132.13,84,126.06,84,118Z"/><path d="M134.36,126.14c0,7.43-6.53,12.86-15,12.86-8.6,0-12.78-2.09-16.11-3l-.21-.07v-8.55s10.59,13.76,23.13,9.53a7.32,7.32,0,0,0,4-7c0-5.77-6.51-7.94-13.27-10.19-7-2.34-14.12-5-14.12-11.7,0-8.6,8.52-12.44,15.44-12.44,6.77,0,9,.65,13.77,1.39h0l.17,0,.05,0,.38.07v.12h0V105c-7.69-8.2-16.46-8.78-17.21-8.61h0c-5.21.71-8.58,3.37-8.58,7.06,0,5.68,6.52,7.85,13.21,10.19C127.09,116.11,134.36,118.7,134.36,126.14Z"/><path d="M184.07,135c-2.14,1.92-5,3.86-7,3.86-3.18,0-4.77-2.18-4.77-5.94,0-2,.17-4.59.34-6.34-1.76,3.67-9.44,12.36-16.37,12.36-6.76,0-10.86-4.26-10.86-9.36,0-5.51,5.27-10.92,20.14-16.83l.74-.29,1.15-.45.37-.15a8.26,8.26,0,0,0,5-7.32,2.44,2.44,0,0,0,0-.27v-.2a3.59,3.59,0,0,0,0-.47.26.26,0,0,0,0-.09c0-.18,0-.35-.07-.52a.53.53,0,0,0,0-.12h0a4.64,4.64,0,0,0-.11-.51c0-.15-.08-.3-.13-.46A7.58,7.58,0,0,0,170.85,99l-.17-.21-.36-.39,0,0,0,0a6,6,0,0,0-2.36-1.56,10.12,10.12,0,0,0-3.64-.57,11,11,0,0,0-1.67.12h-.06a6.79,6.79,0,0,0-.94.2,7.88,7.88,0,0,0-2.92,1.42c-2.84,2.17-3.93,5.68-5.19,7.52l-4.17-4.35A39.84,39.84,0,0,1,161.07,96a21.3,21.3,0,0,1,8.94-.24h0c5.08,1,8.85,3.88,9.17,7.33a.13.13,0,0,1,0,.06.24.24,0,0,1,0,.08c.58,4.78-5.88,7.15-5.88,7.15l-6.84,2.92c-12.28,5.18-15.21,7.68-15.21,13.86,0,4.51,4,8.1,9.11,8.1,5.75,0,11.6-7.68,12.35-10.44a4.27,4.27,0,0,1,3.74-2.64c2.85-.17,2.66,2.85,2.66,2.85-.09,1.63-.14,3-.14,3.88,0,4.76.6,7.1,2.35,7.1a3.7,3.7,0,0,0,2.3-1.48Z"/></g></g></svg>